<?xml version="1.0" standalone="no"?>
<!DOCTYPE svg PUBLIC "-//W3C//DTD SVG 20010904//EN"
 "http://www.w3.org/TR/2001/REC-SVG-20010904/DTD/svg10.dtd">
<svg version="1.0" xmlns="http://www.w3.org/2000/svg"
 width="200.000000pt" height="200.000000pt" viewBox="0 0 200.000000 200.000000"
 preserveAspectRatio="xMidYMid meet">

<g transform="translate(0.000000,200.000000) scale(0.100000,-0.100000)"
fill="#000000" stroke="none">
<path d="M870 1462 c-91 -31 -141 -62 -206 -126 -67 -67 -101 -125 -133 -230
-26 -85 -26 -117 -1 -209 30 -109 67 -176 134 -242 192 -190 492 -190 682 0
68 67 101 125 133 231 27 92 27 144 -3 232 -55 160 -137 256 -273 319 -70 33
-88 37 -178 40 -78 2 -112 -1 -155 -15z m269 -280 c30 -70 82 -193 117 -274
l62 -148 -62 0 -63 0 -20 53 -20 52 -126 3 -125 3 -23 -56 -23 -55 -62 0 -62
0 109 255 c59 140 113 263 119 275 9 17 20 20 68 20 l57 0 54 -128z"/>
<path d="M987 1068 l-36 -83 71 -3 c39 -2 72 -1 74 1 4 4 -58 153 -68 162 -3
3 -21 -32 -41 -77z"/>
</g>
</svg>
