<?xml version="1.0" standalone="yes"?>
<svg xmlns="http://www.w3.org/2000/svg" width="250" height="250">
<path style="fill:#010101; stroke:none;" d="M0 0L0 250L250 250L250 0L0 0z"/>
<path style="fill:#303030; stroke:none;" d="M123 37L122 40L123 37z"/>
<path style="fill:#5f5f5f; stroke:none;" d="M124.667 37.3333L125.333 37.6667L124.667 37.3333z"/>
<path style="fill:#303030; stroke:none;" d="M126 37L128 40L126 37z"/>
<path style="fill:#9e9e9e; stroke:none;" d="M124 38L122 42L123 42L124 39L126 39L127 42L128 42L126 38L124 38z"/>
<path style="fill:#fdfdfd; stroke:none;" d="M124 39L67.5787 137L42 183L64.7901 181.972L77.4244 162L106.85 111L118.421 91L124.17 83.2068L129.846 88.0015L140.85 107L154.719 131L162.213 141.397L185 142L126 39L124 39z"/>
<path style="fill:#5f5f5f; stroke:none;" d="M122 40L123 41L122 40M127 40L128 41L127 40z"/>
<path style="fill:#303030; stroke:none;" d="M121 41L122 42L121 41M128 41L129 42L128 41z"/>
<path style="fill:#5f5f5f; stroke:none;" d="M121 42L122 43L121 42M128 42L129 43L128 42z"/>
<path style="fill:#303030; stroke:none;" d="M120 43L121 44L120 43z"/>
<path style="fill:#9e9e9e; stroke:none;" d="M121 43L122 44L121 43M128 43L129 44L128 43z"/>
<path style="fill:#303030; stroke:none;" d="M129 43L130 44L129 43z"/>
<path style="fill:#5f5f5f; stroke:none;" d="M120 44L121 45L120 44M129 44L130 45L129 44z"/>
<path style="fill:#303030; stroke:none;" d="M119 45L118 47L119 45z"/>
<path style="fill:#9e9e9e; stroke:none;" d="M120 45L121 46L120 45M129 45L131 47L129 45z"/>
<path style="fill:#303030; stroke:none;" d="M130 45L131 46L130 45z"/>
<path style="fill:#9e9e9e; stroke:none;" d="M119 46L120 47L119 46z"/>
<path style="fill:#303030; stroke:none;" d="M131 46L132 47L131 46z"/>
<path style="fill:#5f5f5f; stroke:none;" d="M118 47L119 48L118 47M131 47L132 48L131 47z"/>
<path style="fill:#303030; stroke:none;" d="M117 48L118 49L117 48z"/>
<path style="fill:#9e9e9e; stroke:none;" d="M118 48L119 49L118 48M131 48L132 49L131 48z"/>
<path style="fill:#303030; stroke:none;" d="M132 48L133 49L132 48z"/>
<path style="fill:#5f5f5f; stroke:none;" d="M117 49L118 50L117 49M132 49L133 50L132 49z"/>
<path style="fill:#303030; stroke:none;" d="M116 50L117 51L116 50z"/>
<path style="fill:#9e9e9e; stroke:none;" d="M117 50L118 51L117 50M132 50L134 54L135 54L132 50z"/>
<path style="fill:#303030; stroke:none;" d="M133 50L134 51L133 50z"/>
<path style="fill:#9e9e9e; stroke:none;" d="M116 51L115 54L116 51z"/>
<path style="fill:#303030; stroke:none;" d="M115 52L116 53L115 52M134 52L135 53L134 52M114 53L115 54L114 53M135 53L136 54L135 53z"/>
<path style="fill:#5f5f5f; stroke:none;" d="M114 54L115 55L114 54M135 54L136 55L135 54z"/>
<path style="fill:#303030; stroke:none;" d="M113 55L114 56L113 55z"/>
<path style="fill:#9e9e9e; stroke:none;" d="M114 55L115 56L114 55M135 55L136 56L135 55z"/>
<path style="fill:#303030; stroke:none;" d="M136 55L137 56L136 55z"/>
<path style="fill:#5f5f5f; stroke:none;" d="M113 56L114 57L113 56M136 56L137 57L136 56z"/>
<path style="fill:#303030; stroke:none;" d="M112 57L113 58L112 57z"/>
<path style="fill:#9e9e9e; stroke:none;" d="M113 57L114 58L113 57M136 57L137 58L136 57z"/>
<path style="fill:#303030; stroke:none;" d="M137 57L138 58L137 57z"/>
<path style="fill:#5f5f5f; stroke:none;" d="M112 58L111 60L112 58M137 58L139 60L137 58z"/>
<path style="fill:#9e9e9e; stroke:none;" d="M112 59L113 60L112 59M137 59L138 60L137 59M111 60L112 61L111 60M138 60L139 61L138 60z"/>
<path style="fill:#5f5f5f; stroke:none;" d="M110 61L111 62L110 61M139 61L140 62L139 61z"/>
<path style="fill:#303030; stroke:none;" d="M109 62L110 63L109 62z"/>
<path style="fill:#9e9e9e; stroke:none;" d="M110 62L111 63L110 62M139 62L140 63L139 62z"/>
<path style="fill:#303030; stroke:none;" d="M140 62L141 63L140 62z"/>
<path style="fill:#5f5f5f; stroke:none;" d="M109 63L110 64L109 63M140 63L141 64L140 63z"/>
<path style="fill:#303030; stroke:none;" d="M108 64L107 66L108 64z"/>
<path style="fill:#9e9e9e; stroke:none;" d="M109 64L110 65L109 64M140 64L141 65L140 64z"/>
<path style="fill:#303030; stroke:none;" d="M141 64L143 66L141 64z"/>
<path style="fill:#5f5f5f; stroke:none;" d="M108 65L107 67L108 65M141 65L143 67L141 65z"/>
<path style="fill:#9e9e9e; stroke:none;" d="M108 66L109 67L108 66M141 66L142 67L141 66z"/>
<path style="fill:#303030; stroke:none;" d="M106 67L107 68L106 67z"/>
<path style="fill:#9e9e9e; stroke:none;" d="M107 67L108 68L107 67M142 67L143 68L142 67z"/>
<path style="fill:#303030; stroke:none;" d="M143 67L144 68L143 67z"/>
<path style="fill:#5f5f5f; stroke:none;" d="M106 68L107 69L106 68M143 68L144 69L143 68z"/>
<path style="fill:#303030; stroke:none;" d="M105 69L106 70L105 69z"/>
<path style="fill:#9e9e9e; stroke:none;" d="M106 69L107 70L106 69M143 69L145 73L146 73L143 69z"/>
<path style="fill:#303030; stroke:none;" d="M144 69L145 70L144 69z"/>
<path style="fill:#9e9e9e; stroke:none;" d="M105 70L104 73L105 70z"/>
<path style="fill:#303030; stroke:none;" d="M104 71L105 72L104 71M145 71L146 72L145 71M103 72L104 73L103 72M146 72L147 73L146 72z"/>
<path style="fill:#5f5f5f; stroke:none;" d="M103 73L104 74L103 73M146 73L147 74L146 73z"/>
<path style="fill:#303030; stroke:none;" d="M102 74L103 75L102 74z"/>
<path style="fill:#9e9e9e; stroke:none;" d="M103 74L104 75L103 74M146 74L147 75L146 74z"/>
<path style="fill:#303030; stroke:none;" d="M147 74L148 75L147 74z"/>
<path style="fill:#5f5f5f; stroke:none;" d="M102 75L103 76L102 75M147 75L148 76L147 75z"/>
<path style="fill:#303030; stroke:none;" d="M101 76L102 77L101 76z"/>
<path style="fill:#9e9e9e; stroke:none;" d="M102 76L103 77L102 76M147 76L149 80L150 80L147 76z"/>
<path style="fill:#303030; stroke:none;" d="M148 76L149 77L148 76z"/>
<path style="fill:#9e9e9e; stroke:none;" d="M101 77L100 80L101 77z"/>
<path style="fill:#303030; stroke:none;" d="M100 78L101 79L100 78M149 78L150 79L149 78M99 79L100 80L99 79M150 79L151 80L150 79z"/>
<path style="fill:#5f5f5f; stroke:none;" d="M99 80L100 81L99 80M150 80L151 81L150 80z"/>
<path style="fill:#303030; stroke:none;" d="M98 81L99 82L98 81z"/>
<path style="fill:#9e9e9e; stroke:none;" d="M99 81L100 82L99 81z"/>
<path style="fill:#5f5f5f; stroke:none;" d="M124.667 81.3333L125.333 81.6667L124.667 81.3333z"/>
<path style="fill:#9e9e9e; stroke:none;" d="M150 81L151 82L150 81z"/>
<path style="fill:#303030; stroke:none;" d="M151 81L152 82L151 81z"/>
<path style="fill:#5f5f5f; stroke:none;" d="M98 82L99 83L98 82z"/>
<path style="fill:#9e9e9e; stroke:none;" d="M123 82L121 86L122 86L123 82M126 82L128 86L129 86L126 82z"/>
<path style="fill:#5f5f5f; stroke:none;" d="M151 82L152 83L151 82z"/>
<path style="fill:#303030; stroke:none;" d="M97 83L98 84L97 83z"/>
<path style="fill:#9e9e9e; stroke:none;" d="M98 83L99 84L98 83z"/>
<path style="fill:#5f5f5f; stroke:none;" d="M123 83L124 84L123 83M126 83L127 84L126 83z"/>
<path style="fill:#9e9e9e; stroke:none;" d="M151 83L153 87L154 87L151 83z"/>
<path style="fill:#303030; stroke:none;" d="M152 83L153 84L152 83z"/>
<path style="fill:#9e9e9e; stroke:none;" d="M97 84L96 87L97 84z"/>
<path style="fill:#5f5f5f; stroke:none;" d="M96 85L97 86L96 85M122 85L123 86L122 85M127 85L128 86L127 85M153 85L154 86L153 85z"/>
<path style="fill:#303030; stroke:none;" d="M95 86L96 87L95 86z"/>
<path style="fill:#5f5f5f; stroke:none;" d="M121 86L122 87L121 86M128 86L129 87L128 86z"/>
<path style="fill:#303030; stroke:none;" d="M154 86L155 87L154 86z"/>
<path style="fill:#5f5f5f; stroke:none;" d="M95 87L96 88L95 87z"/>
<path style="fill:#9e9e9e; stroke:none;" d="M120 87L121 88L120 87z"/>
<path style="fill:#303030; stroke:none;" d="M121 87L122 88L121 87M128 87L129 88L128 87z"/>
<path style="fill:#9e9e9e; stroke:none;" d="M129 87L130 88L129 87z"/>
<path style="fill:#5f5f5f; stroke:none;" d="M154 87L155 88L154 87z"/>
<path style="fill:#303030; stroke:none;" d="M94 88L95 89L94 88z"/>
<path style="fill:#9e9e9e; stroke:none;" d="M95 88L96 89L95 88z"/>
<path style="fill:#5f5f5f; stroke:none;" d="M120 88L121 89L120 88M129 88L130 89L129 88z"/>
<path style="fill:#9e9e9e; stroke:none;" d="M154 88L155 89L154 88z"/>
<path style="fill:#303030; stroke:none;" d="M155 88L156 89L155 88z"/>
<path style="fill:#5f5f5f; stroke:none;" d="M94 89L95 90L94 89z"/>
<path style="fill:#9e9e9e; stroke:none;" d="M119 89L117 93L118 93L119 89M130 89L132 93L133 93L130 89z"/>
<path style="fill:#5f5f5f; stroke:none;" d="M155 89L156 90L155 89z"/>
<path style="fill:#303030; stroke:none;" d="M93 90L92 92L93 90z"/>
<path style="fill:#9e9e9e; stroke:none;" d="M94 90L95 91L94 90z"/>
<path style="fill:#303030; stroke:none;" d="M119 90L120 91L119 90M130 90L131 91L130 90z"/>
<path style="fill:#9e9e9e; stroke:none;" d="M155 90L156 91L155 90z"/>
<path style="fill:#303030; stroke:none;" d="M156 90L158 92L156 90z"/>
<path style="fill:#5f5f5f; stroke:none;" d="M93 91L92 93L93 91M156 91L158 93L156 91z"/>
<path style="fill:#9e9e9e; stroke:none;" d="M93 92L94 93L93 92z"/>
<path style="fill:#303030; stroke:none;" d="M118 92L119 93L118 92M131 92L132 93L131 92z"/>
<path style="fill:#9e9e9e; stroke:none;" d="M156 92L157 93L156 92z"/>
<path style="fill:#303030; stroke:none;" d="M91 93L92 94L91 93z"/>
<path style="fill:#9e9e9e; stroke:none;" d="M92 93L93 94L92 93z"/>
<path style="fill:#5f5f5f; stroke:none;" d="M117 93L118 94L117 93M132 93L133 94L132 93z"/>
<path style="fill:#9e9e9e; stroke:none;" d="M157 93L158 94L157 93z"/>
<path style="fill:#303030; stroke:none;" d="M158 93L159 94L158 93z"/>
<path style="fill:#5f5f5f; stroke:none;" d="M91 94L92 95L91 94z"/>
<path style="fill:#9e9e9e; stroke:none;" d="M116 94L117 95L116 94z"/>
<path style="fill:#303030; stroke:none;" d="M117 94L118 95L117 94M132 94L133 95L132 94z"/>
<path style="fill:#9e9e9e; stroke:none;" d="M133 94L134 95L133 94z"/>
<path style="fill:#5f5f5f; stroke:none;" d="M158 94L159 95L158 94z"/>
<path style="fill:#303030; stroke:none;" d="M90 95L91 96L90 95z"/>
<path style="fill:#9e9e9e; stroke:none;" d="M91 95L92 96L91 95z"/>
<path style="fill:#5f5f5f; stroke:none;" d="M116 95L117 96L116 95M133 95L134 96L133 95z"/>
<path style="fill:#9e9e9e; stroke:none;" d="M158 95L159 96L158 95z"/>
<path style="fill:#303030; stroke:none;" d="M159 95L160 96L159 95z"/>
<path style="fill:#5f5f5f; stroke:none;" d="M90 96L91 97L90 96z"/>
<path style="fill:#9e9e9e; stroke:none;" d="M115 96L113 100L114 100L115 96z"/>
<path style="fill:#303030; stroke:none;" d="M116 96L117 97L116 96M133 96L135 98L133 96z"/>
<path style="fill:#9e9e9e; stroke:none;" d="M134 96L135 97L134 96z"/>
<path style="fill:#5f5f5f; stroke:none;" d="M159 96L160 97L159 96z"/>
<path style="fill:#303030; stroke:none;" d="M89 97L88 99L89 97z"/>
<path style="fill:#9e9e9e; stroke:none;" d="M90 97L91 98L90 97z"/>
<path style="fill:#303030; stroke:none;" d="M115 97L116 98L115 97z"/>
<path style="fill:#9e9e9e; stroke:none;" d="M135 97L137 100L135 97M159 97L161 99L159 97z"/>
<path style="fill:#303030; stroke:none;" d="M160 97L161 98L160 97z"/>
<path style="fill:#9e9e9e; stroke:none;" d="M89 98L90 99L89 98z"/>
<path style="fill:#303030; stroke:none;" d="M161 98L162 99L161 98z"/>
<path style="fill:#5f5f5f; stroke:none;" d="M88 99L89 100L88 99z"/>
<path style="fill:#303030; stroke:none;" d="M114 99L115 100L114 99M135 99L136 100L135 99z"/>
<path style="fill:#5f5f5f; stroke:none;" d="M161 99L162 100L161 99z"/>
<path style="fill:#303030; stroke:none;" d="M87 100L88 101L87 100z"/>
<path style="fill:#9e9e9e; stroke:none;" d="M88 100L89 101L88 100z"/>
<path style="fill:#5f5f5f; stroke:none;" d="M113 100L114 101L113 100M136 100L137 101L136 100z"/>
<path style="fill:#9e9e9e; stroke:none;" d="M161 100L162 101L161 100z"/>
<path style="fill:#303030; stroke:none;" d="M162 100L163 101L162 100z"/>
<path style="fill:#5f5f5f; stroke:none;" d="M87 101L88 102L87 101z"/>
<path style="fill:#9e9e9e; stroke:none;" d="M112 101L110 105L111 105L112 101z"/>
<path style="fill:#303030; stroke:none;" d="M113 101L114 102L113 101M136 101L137 102L136 101z"/>
<path style="fill:#9e9e9e; stroke:none;" d="M137 101L139 105L140 105L137 101z"/>
<path style="fill:#5f5f5f; stroke:none;" d="M162 101L163 102L162 101z"/>
<path style="fill:#303030; stroke:none;" d="M86 102L87 103L86 102z"/>
<path style="fill:#9e9e9e; stroke:none;" d="M87 102L88 103L87 102z"/>
<path style="fill:#5f5f5f; stroke:none;" d="M112 102L113 103L112 102M137 102L138 103L137 102z"/>
<path style="fill:#9e9e9e; stroke:none;" d="M162 102L164 106L165 106L162 102z"/>
<path style="fill:#303030; stroke:none;" d="M163 102L164 103L163 102z"/>
<path style="fill:#9e9e9e; stroke:none;" d="M86 103L85 106L86 103z"/>
<path style="fill:#303030; stroke:none;" d="M112 103L113 104L112 103M137 103L138 104L137 103M85 104L86 105L85 104M111 104L112 105L111 104M138 104L139 105L138 104M164 104L165 105L164 104z"/>
<path style="fill:#5f5f5f; stroke:none;" d="M110 105L111 106L110 105M139 105L140 106L139 105M84 106L85 107L84 106z"/>
<path style="fill:#9e9e9e; stroke:none;" d="M109 106L110 107L109 106z"/>
<path style="fill:#303030; stroke:none;" d="M110 106L111 107L110 106M139 106L140 107L139 106z"/>
<path style="fill:#9e9e9e; stroke:none;" d="M140 106L141 107L140 106z"/>
<path style="fill:#5f5f5f; stroke:none;" d="M165 106L166 107L165 106z"/>
<path style="fill:#303030; stroke:none;" d="M83 107L84 108L83 107z"/>
<path style="fill:#9e9e9e; stroke:none;" d="M84 107L85 108L84 107z"/>
<path style="fill:#5f5f5f; stroke:none;" d="M109 107L110 108L109 107M140 107L141 108L140 107z"/>
<path style="fill:#9e9e9e; stroke:none;" d="M165 107L166 108L165 107z"/>
<path style="fill:#303030; stroke:none;" d="M166 107L167 108L166 107z"/>
<path style="fill:#5f5f5f; stroke:none;" d="M83 108L84 109L83 108z"/>
<path style="fill:#9e9e9e; stroke:none;" d="M108 108L106 112L107 112L108 108z"/>
<path style="fill:#303030; stroke:none;" d="M109 108L110 109L109 108M140 108L141 109L140 108z"/>
<path style="fill:#9e9e9e; stroke:none;" d="M141 108L143 112L144 112L141 108z"/>
<path style="fill:#5f5f5f; stroke:none;" d="M166 108L167 109L166 108z"/>
<path style="fill:#303030; stroke:none;" d="M82 109L83 110L82 109z"/>
<path style="fill:#9e9e9e; stroke:none;" d="M83 109L84 110L83 109z"/>
<path style="fill:#5f5f5f; stroke:none;" d="M108 109L109 110L108 109M141 109L142 110L141 109z"/>
<path style="fill:#9e9e9e; stroke:none;" d="M166 109L168 113L169 113L166 109z"/>
<path style="fill:#303030; stroke:none;" d="M167 109L168 110L167 109z"/>
<path style="fill:#9e9e9e; stroke:none;" d="M82 110L81 113L82 110z"/>
<path style="fill:#5f5f5f; stroke:none;" d="M81 111L82 112L81 111z"/>
<path style="fill:#303030; stroke:none;" d="M107 111L108 112L107 111M142 111L143 112L142 111z"/>
<path style="fill:#5f5f5f; stroke:none;" d="M168 111L169 112L168 111z"/>
<path style="fill:#303030; stroke:none;" d="M80 112L81 113L80 112z"/>
<path style="fill:#5f5f5f; stroke:none;" d="M106 112L107 113L106 112M143 112L144 113L143 112z"/>
<path style="fill:#303030; stroke:none;" d="M169 112L170 113L169 112z"/>
<path style="fill:#5f5f5f; stroke:none;" d="M80 113L81 114L80 113z"/>
<path style="fill:#9e9e9e; stroke:none;" d="M105 113L106 114L105 113z"/>
<path style="fill:#303030; stroke:none;" d="M106 113L107 114L106 113M143 113L144 114L143 113z"/>
<path style="fill:#9e9e9e; stroke:none;" d="M144 113L145 114L144 113z"/>
<path style="fill:#5f5f5f; stroke:none;" d="M169 113L170 114L169 113z"/>
<path style="fill:#303030; stroke:none;" d="M79 114L80 115L79 114z"/>
<path style="fill:#9e9e9e; stroke:none;" d="M80 114L81 115L80 114z"/>
<path style="fill:#5f5f5f; stroke:none;" d="M105 114L106 115L105 114M144 114L145 115L144 114z"/>
<path style="fill:#9e9e9e; stroke:none;" d="M169 114L170 115L169 114z"/>
<path style="fill:#303030; stroke:none;" d="M170 114L171 115L170 114z"/>
<path style="fill:#5f5f5f; stroke:none;" d="M79 115L80 116L79 115z"/>
<path style="fill:#9e9e9e; stroke:none;" d="M104 115L102 119L103 119L104 115z"/>
<path style="fill:#303030; stroke:none;" d="M105 115L106 116L105 115M144 115L145 116L144 115z"/>
<path style="fill:#9e9e9e; stroke:none;" d="M145 115L147 119L148 119L145 115z"/>
<path style="fill:#5f5f5f; stroke:none;" d="M170 115L171 116L170 115z"/>
<path style="fill:#303030; stroke:none;" d="M78 116L77 118L78 116z"/>
<path style="fill:#9e9e9e; stroke:none;" d="M79 116L80 117L79 116z"/>
<path style="fill:#5f5f5f; stroke:none;" d="M104 116L105 117L104 116M145 116L146 117L145 116z"/>
<path style="fill:#9e9e9e; stroke:none;" d="M170 116L171 117L170 116z"/>
<path style="fill:#303030; stroke:none;" d="M171 116L173 118L171 116z"/>
<path style="fill:#5f5f5f; stroke:none;" d="M78 117L77 119L78 117M171 117L173 119L171 117z"/>
<path style="fill:#9e9e9e; stroke:none;" d="M78 118L79 119L78 118z"/>
<path style="fill:#303030; stroke:none;" d="M103 118L104 119L103 118M146 118L147 119L146 118z"/>
<path style="fill:#9e9e9e; stroke:none;" d="M171 118L172 119L171 118z"/>
<path style="fill:#303030; stroke:none;" d="M76 119L77 120L76 119z"/>
<path style="fill:#9e9e9e; stroke:none;" d="M77 119L78 120L77 119z"/>
<path style="fill:#5f5f5f; stroke:none;" d="M102 119L103 120L102 119M147 119L148 120L147 119z"/>
<path style="fill:#9e9e9e; stroke:none;" d="M172 119L173 120L172 119z"/>
<path style="fill:#303030; stroke:none;" d="M173 119L174 120L173 119z"/>
<path style="fill:#5f5f5f; stroke:none;" d="M76 120L77 121L76 120z"/>
<path style="fill:#9e9e9e; stroke:none;" d="M101 120L102 121L101 120z"/>
<path style="fill:#303030; stroke:none;" d="M102 120L103 121L102 120M147 120L148 121L147 120z"/>
<path style="fill:#9e9e9e; stroke:none;" d="M148 120L149 121L148 120z"/>
<path style="fill:#5f5f5f; stroke:none;" d="M173 120L174 121L173 120z"/>
<path style="fill:#303030; stroke:none;" d="M75 121L76 122L75 121z"/>
<path style="fill:#9e9e9e; stroke:none;" d="M76 121L77 122L76 121z"/>
<path style="fill:#5f5f5f; stroke:none;" d="M101 121L102 122L101 121M148 121L149 122L148 121z"/>
<path style="fill:#9e9e9e; stroke:none;" d="M173 121L174 122L173 121z"/>
<path style="fill:#303030; stroke:none;" d="M174 121L175 122L174 121z"/>
<path style="fill:#5f5f5f; stroke:none;" d="M75 122L76 123L75 122z"/>
<path style="fill:#9e9e9e; stroke:none;" d="M100 122L98 126L99 126L100 122z"/>
<path style="fill:#303030; stroke:none;" d="M101 122L102 123L101 122M148 122L150 124L148 122z"/>
<path style="fill:#9e9e9e; stroke:none;" d="M149 122L150 123L149 122z"/>
<path style="fill:#5f5f5f; stroke:none;" d="M174 122L175 123L174 122z"/>
<path style="fill:#303030; stroke:none;" d="M74 123L73 125L74 123z"/>
<path style="fill:#9e9e9e; stroke:none;" d="M75 123L76 124L75 123z"/>
<path style="fill:#303030; stroke:none;" d="M100 123L101 124L100 123M123 124L123 125L127 125L123 124z"/>
<path style="fill:#9e9e9e; stroke:none;" d="M150 123L152 126L150 123M174 123L176 125L174 123z"/>
<path style="fill:#303030; stroke:none;" d="M175 123L176 124L175 123z"/>
<path style="fill:#9e9e9e; stroke:none;" d="M74 124L75 125L74 124M124.667 124.333L125.333 124.667L124.667 124.333z"/>
<path style="fill:#303030; stroke:none;" d="M176 124L177 125L176 124z"/>
<path style="fill:#5f5f5f; stroke:none;" d="M73 125L74 126L73 125z"/>
<path style="fill:#303030; stroke:none;" d="M99 125L100 126L99 125z"/>
<path style="fill:#5f5f5f; stroke:none;" d="M123 125L124 126L123 125z"/>
<path style="fill:#fdfdfd; stroke:none;" d="M124 125L91 183L114.366 181.972L124 166L126 166L135.634 181.972L156 183L208 183L198.621 167.028L186 166L151.043 165.397L142.306 154L126 125L124 125z"/>
<path style="fill:#5f5f5f; stroke:none;" d="M126 125L127 126L126 125z"/>
<path style="fill:#303030; stroke:none;" d="M150 125L151 126L150 125z"/>
<path style="fill:#5f5f5f; stroke:none;" d="M176 125L177 126L176 125z"/>
<path style="fill:#303030; stroke:none;" d="M72 126L73 127L72 126z"/>
<path style="fill:#9e9e9e; stroke:none;" d="M73 126L74 127L73 126z"/>
<path style="fill:#5f5f5f; stroke:none;" d="M98 126L99 127L98 126z"/>
<path style="fill:#303030; stroke:none;" d="M122 126L123 127L122 126z"/>
<path style="fill:#9e9e9e; stroke:none;" d="M123 126L124 127L123 126M126 126L127 127L126 126z"/>
<path style="fill:#303030; stroke:none;" d="M127 126L128 127L127 126z"/>
<path style="fill:#5f5f5f; stroke:none;" d="M151 126L152 127L151 126z"/>
<path style="fill:#9e9e9e; stroke:none;" d="M176 126L177 127L176 126z"/>
<path style="fill:#303030; stroke:none;" d="M177 126L178 127L177 126z"/>
<path style="fill:#5f5f5f; stroke:none;" d="M72 127L73 128L72 127z"/>
<path style="fill:#9e9e9e; stroke:none;" d="M97 127L95 131L96 131L97 127z"/>
<path style="fill:#303030; stroke:none;" d="M98 127L99 128L98 127z"/>
<path style="fill:#5f5f5f; stroke:none;" d="M122 127L123 128L122 127M127 127L128 128L127 127z"/>
<path style="fill:#303030; stroke:none;" d="M151 127L152 128L151 127z"/>
<path style="fill:#9e9e9e; stroke:none;" d="M152 127L154 131L155 131L152 127z"/>
<path style="fill:#5f5f5f; stroke:none;" d="M177 127L178 128L177 127z"/>
<path style="fill:#303030; stroke:none;" d="M71 128L72 129L71 128z"/>
<path style="fill:#9e9e9e; stroke:none;" d="M72 128L73 129L72 128z"/>
<path style="fill:#5f5f5f; stroke:none;" d="M97 128L98 129L97 128z"/>
<path style="fill:#303030; stroke:none;" d="M121 128L122 129L121 128z"/>
<path style="fill:#9e9e9e; stroke:none;" d="M122 128L123 129L122 128M127 128L129 132L130 132L127 128z"/>
<path style="fill:#303030; stroke:none;" d="M128 128L129 129L128 128z"/>
<path style="fill:#5f5f5f; stroke:none;" d="M152 128L153 129L152 128z"/>
<path style="fill:#9e9e9e; stroke:none;" d="M177 128L179 132L180 132L177 128z"/>
<path style="fill:#303030; stroke:none;" d="M178 128L179 129L178 128z"/>
<path style="fill:#9e9e9e; stroke:none;" d="M71 129L70 132L71 129z"/>
<path style="fill:#303030; stroke:none;" d="M97 129L98 130L97 129z"/>
<path style="fill:#9e9e9e; stroke:none;" d="M121 129L120 132L121 129z"/>
<path style="fill:#303030; stroke:none;" d="M152 129L153 130L152 129M70 130L71 131L70 130M96 130L95 133L96 130z"/>
<path style="fill:#5f5f5f; stroke:none;" d="M120 130L121 131L120 130M129 130L130 131L129 130z"/>
<path style="fill:#303030; stroke:none;" d="M153 130L155 133L153 130M179 130L180 131L179 130z"/>
<path style="fill:#5f5f5f; stroke:none;" d="M95 131L96 132L95 131z"/>
<path style="fill:#303030; stroke:none;" d="M119 131L120 132L119 131M130 131L131 132L130 131z"/>
<path style="fill:#5f5f5f; stroke:none;" d="M154 131L155 132L154 131M69 132L70 133L69 132z"/>
<path style="fill:#9e9e9e; stroke:none;" d="M94 132L95 133L94 132z"/>
<path style="fill:#5f5f5f; stroke:none;" d="M119 132L120 133L119 132M130 132L131 133L130 132z"/>
<path style="fill:#9e9e9e; stroke:none;" d="M155 132L156 133L155 132z"/>
<path style="fill:#5f5f5f; stroke:none;" d="M180 132L181 133L180 132z"/>
<path style="fill:#303030; stroke:none;" d="M68 133L69 134L68 133z"/>
<path style="fill:#9e9e9e; stroke:none;" d="M69 133L70 134L69 133z"/>
<path style="fill:#5f5f5f; stroke:none;" d="M94 133L95 134L94 133z"/>
<path style="fill:#303030; stroke:none;" d="M118 133L119 134L118 133z"/>
<path style="fill:#9e9e9e; stroke:none;" d="M119 133L120 134L119 133M130 133L131 134L130 133z"/>
<path style="fill:#303030; stroke:none;" d="M131 133L132 134L131 133z"/>
<path style="fill:#5f5f5f; stroke:none;" d="M155 133L156 134L155 133z"/>
<path style="fill:#9e9e9e; stroke:none;" d="M180 133L181 134L180 133z"/>
<path style="fill:#303030; stroke:none;" d="M181 133L182 134L181 133z"/>
<path style="fill:#5f5f5f; stroke:none;" d="M68 134L69 135L68 134z"/>
<path style="fill:#9e9e9e; stroke:none;" d="M93 134L91 138L92 138L93 134z"/>
<path style="fill:#303030; stroke:none;" d="M94 134L95 135L94 134z"/>
<path style="fill:#5f5f5f; stroke:none;" d="M118 134L117 136L118 134M131 134L133 136L131 134z"/>
<path style="fill:#303030; stroke:none;" d="M155 134L156 135L155 134z"/>
<path style="fill:#9e9e9e; stroke:none;" d="M156 134L158 138L159 138L156 134z"/>
<path style="fill:#5f5f5f; stroke:none;" d="M181 134L182 135L181 134z"/>
<path style="fill:#303030; stroke:none;" d="M67 135L68 136L67 135z"/>
<path style="fill:#9e9e9e; stroke:none;" d="M68 135L69 136L68 135z"/>
<path style="fill:#5f5f5f; stroke:none;" d="M93 135L94 136L93 135z"/>
<path style="fill:#9e9e9e; stroke:none;" d="M118 135L119 136L118 135M131 135L132 136L131 135z"/>
<path style="fill:#5f5f5f; stroke:none;" d="M156 135L157 136L156 135z"/>
<path style="fill:#9e9e9e; stroke:none;" d="M181 135L183 139L184 139L181 135z"/>
<path style="fill:#303030; stroke:none;" d="M182 135L183 136L182 135z"/>
<path style="fill:#9e9e9e; stroke:none;" d="M67 136L66 139L67 136z"/>
<path style="fill:#303030; stroke:none;" d="M116 136L117 137L116 136z"/>
<path style="fill:#9e9e9e; stroke:none;" d="M117 136L116 139L117 136M132 136L134 139L132 136z"/>
<path style="fill:#303030; stroke:none;" d="M133 136L134 137L133 136z"/>
<path style="fill:#5f5f5f; stroke:none;" d="M66 137L67 138L66 137z"/>
<path style="fill:#303030; stroke:none;" d="M92 137L93 138L92 137z"/>
<path style="fill:#5f5f5f; stroke:none;" d="M116 137L117 138L116 137M133 137L134 138L133 137z"/>
<path style="fill:#303030; stroke:none;" d="M157 137L158 138L157 137z"/>
<path style="fill:#5f5f5f; stroke:none;" d="M183 137L184 138L183 137M91 138L92 139L91 138z"/>
<path style="fill:#303030; stroke:none;" d="M115 138L116 139L115 138M134 138L135 139L134 138z"/>
<path style="fill:#5f5f5f; stroke:none;" d="M158 138L159 139L158 138M65 139L66 140L65 139z"/>
<path style="fill:#9e9e9e; stroke:none;" d="M90 139L91 140L90 139z"/>
<path style="fill:#303030; stroke:none;" d="M91 139L92 140L91 139z"/>
<path style="fill:#5f5f5f; stroke:none;" d="M115 139L116 140L115 139M134 139L135 140L134 139z"/>
<path style="fill:#303030; stroke:none;" d="M158 139L159 140L158 139z"/>
<path style="fill:#9e9e9e; stroke:none;" d="M159 139L160 140L159 139z"/>
<path style="fill:#5f5f5f; stroke:none;" d="M184 139L185 140L184 139z"/>
<path style="fill:#303030; stroke:none;" d="M64 140L65 141L64 140z"/>
<path style="fill:#9e9e9e; stroke:none;" d="M65 140L66 141L65 140z"/>
<path style="fill:#5f5f5f; stroke:none;" d="M90 140L91 141L90 140z"/>
<path style="fill:#303030; stroke:none;" d="M114 140L113 142L114 140z"/>
<path style="fill:#9e9e9e; stroke:none;" d="M115 140L116 141L115 140M134 140L135 141L134 140z"/>
<path style="fill:#303030; stroke:none;" d="M135 140L137 142L135 140z"/>
<path style="fill:#5f5f5f; stroke:none;" d="M159 140L160 141L159 140z"/>
<path style="fill:#9e9e9e; stroke:none;" d="M184 140L185 141L184 140z"/>
<path style="fill:#303030; stroke:none;" d="M185 140L186 141L185 140z"/>
<path style="fill:#5f5f5f; stroke:none;" d="M64 141L65 142L64 141z"/>
<path style="fill:#9e9e9e; stroke:none;" d="M89 141L87 145L88 145L89 141z"/>
<path style="fill:#303030; stroke:none;" d="M90 141L91 142L90 141z"/>
<path style="fill:#5f5f5f; stroke:none;" d="M114 141L115 142L114 141M135 141L136 142L135 141z"/>
<path style="fill:#303030; stroke:none;" d="M159 141C164.254 146.365 180.117 145.034 187 143L187 142C178.649 143.988 166.957 144.371 159 141z"/>
<path style="fill:#9e9e9e; stroke:none;" d="M160 141L161 142L160 141z"/>
<path style="fill:#5f5f5f; stroke:none;" d="M185.333 141.667L185.667 142.333L185.333 141.667z"/>
<path style="fill:#303030; stroke:none;" d="M63 142L62 144L63 142z"/>
<path style="fill:#9e9e9e; stroke:none;" d="M64 142L65 143L64 142z"/>
<path style="fill:#303030; stroke:none;" d="M89 142L90 143L89 142z"/>
<path style="fill:#5f5f5f; stroke:none;" d="M113 142L114 143L113 142M136 142L137 143L136 142z"/>
<path style="fill:#9e9e9e; stroke:none;" d="M161 142L161 143L185 143L161 142z"/>
<path style="fill:#5f5f5f; stroke:none;" d="M63 143L62 145L63 143z"/>
<path style="fill:#303030; stroke:none;" d="M112 143L113 144L112 143z"/>
<path style="fill:#9e9e9e; stroke:none;" d="M113 143L114 144L113 143M136 143L137 144L136 143z"/>
<path style="fill:#303030; stroke:none;" d="M137 143L138 144L137 143z"/>
<path style="fill:#9e9e9e; stroke:none;" d="M63 144L64 145L63 144z"/>
<path style="fill:#303030; stroke:none;" d="M88 144L89 145L88 144z"/>
<path style="fill:#5f5f5f; stroke:none;" d="M112 144L113 145L112 144M137 144L138 145L137 144z"/>
<path style="fill:#303030; stroke:none;" d="M61 145L62 146L61 145z"/>
<path style="fill:#9e9e9e; stroke:none;" d="M62 145L63 146L62 145z"/>
<path style="fill:#5f5f5f; stroke:none;" d="M87 145L88 146L87 145z"/>
<path style="fill:#303030; stroke:none;" d="M111 145L112 146L111 145z"/>
<path style="fill:#9e9e9e; stroke:none;" d="M112 145L113 146L112 145M137 145L138 146L137 145z"/>
<path style="fill:#303030; stroke:none;" d="M138 145L139 146L138 145z"/>
<path style="fill:#5f5f5f; stroke:none;" d="M61 146L62 147L61 146z"/>
<path style="fill:#9e9e9e; stroke:none;" d="M86 146L87 147L86 146z"/>
<path style="fill:#303030; stroke:none;" d="M87 146L88 147L87 146z"/>
<path style="fill:#5f5f5f; stroke:none;" d="M111 146L112 147L111 146M138 146L139 147L138 146z"/>
<path style="fill:#303030; stroke:none;" d="M60 147L61 148L60 147z"/>
<path style="fill:#9e9e9e; stroke:none;" d="M61 147L62 148L61 147z"/>
<path style="fill:#5f5f5f; stroke:none;" d="M86 147L87 148L86 147z"/>
<path style="fill:#303030; stroke:none;" d="M110 147L111 148L110 147z"/>
<path style="fill:#9e9e9e; stroke:none;" d="M111 147L112 148L111 147M138 147L140 149L138 147z"/>
<path style="fill:#303030; stroke:none;" d="M139 147L140 148L139 147z"/>
<path style="fill:#5f5f5f; stroke:none;" d="M60 148L61 149L60 148z"/>
<path style="fill:#9e9e9e; stroke:none;" d="M85 148L86 149L85 148z"/>
<path style="fill:#303030; stroke:none;" d="M86 148L87 149L86 148z"/>
<path style="fill:#9e9e9e; stroke:none;" d="M110 148L111 149L110 148z"/>
<path style="fill:#303030; stroke:none;" d="M59 149L58 151L59 149z"/>
<path style="fill:#9e9e9e; stroke:none;" d="M60 149L61 150L60 149z"/>
<path style="fill:#303030; stroke:none;" d="M85 149L86 150L85 149M109 149L108 151L109 149M140 149L142 151L140 149z"/>
<path style="fill:#9e9e9e; stroke:none;" d="M59 150L60 151L59 150M84 150L83 152L84 150M109 150L110 151L109 150M140 150L141 151L140 150z"/>
<path style="fill:#5f5f5f; stroke:none;" d="M58 151L59 152L58 151z"/>
<path style="fill:#303030; stroke:none;" d="M84 151L85 152L84 151z"/>
<path style="fill:#5f5f5f; stroke:none;" d="M108 151L109 152L108 151M141 151L142 152L141 151z"/>
<path style="fill:#303030; stroke:none;" d="M57 152L58 153L57 152z"/>
<path style="fill:#9e9e9e; stroke:none;" d="M58 152L59 153L58 152z"/>
<path style="fill:#5f5f5f; stroke:none;" d="M83 152L84 153L83 152z"/>
<path style="fill:#303030; stroke:none;" d="M107 152L108 153L107 152z"/>
<path style="fill:#9e9e9e; stroke:none;" d="M108 152L109 153L108 152M141 152L142 153L141 152z"/>
<path style="fill:#303030; stroke:none;" d="M142 152L143 153L142 152z"/>
<path style="fill:#5f5f5f; stroke:none;" d="M57 153L58 154L57 153z"/>
<path style="fill:#9e9e9e; stroke:none;" d="M82 153L83 154L82 153z"/>
<path style="fill:#303030; stroke:none;" d="M83 153L84 154L83 153z"/>
<path style="fill:#5f5f5f; stroke:none;" d="M107 153L108 154L107 153M142 153L143 154L142 153z"/>
<path style="fill:#303030; stroke:none;" d="M56 154L57 155L56 154z"/>
<path style="fill:#9e9e9e; stroke:none;" d="M57 154L58 155L57 154z"/>
<path style="fill:#5f5f5f; stroke:none;" d="M82 154L83 155L82 154z"/>
<path style="fill:#303030; stroke:none;" d="M106 154L107 155L106 154z"/>
<path style="fill:#9e9e9e; stroke:none;" d="M107 154L108 155L107 154M142 154L144 158L145 158L142 154z"/>
<path style="fill:#303030; stroke:none;" d="M143 154L144 155L143 154z"/>
<path style="fill:#9e9e9e; stroke:none;" d="M56 155L55 158L56 155M81 155L80 157L81 155z"/>
<path style="fill:#303030; stroke:none;" d="M82 155L83 156L82 155z"/>
<path style="fill:#9e9e9e; stroke:none;" d="M106 155L105 158L106 155z"/>
<path style="fill:#303030; stroke:none;" d="M55 156L56 157L55 156M81 156L80 159L81 156z"/>
<path style="fill:#5f5f5f; stroke:none;" d="M105 156L106 157L105 156M144 156L145 157L144 156M80 157L81 158L80 157z"/>
<path style="fill:#303030; stroke:none;" d="M104 157L105 158L104 157M145 157L146 158L145 157M54 158L53 160L54 158z"/>
<path style="fill:#9e9e9e; stroke:none;" d="M79 158L80 159L79 158z"/>
<path style="fill:#5f5f5f; stroke:none;" d="M104 158L105 159L104 158M145 158L146 159L145 158z"/>
<path style="fill:#9e9e9e; stroke:none;" d="M54 159L55 160L54 159z"/>
<path style="fill:#5f5f5f; stroke:none;" d="M79 159L80 160L79 159z"/>
<path style="fill:#303030; stroke:none;" d="M103 159L104 160L103 159z"/>
<path style="fill:#9e9e9e; stroke:none;" d="M104 159L105 160L104 159M145 159L146 160L145 159z"/>
<path style="fill:#303030; stroke:none;" d="M146 159L147 160L146 159z"/>
<path style="fill:#5f5f5f; stroke:none;" d="M53 160L54 161L53 160z"/>
<path style="fill:#9e9e9e; stroke:none;" d="M78 160L76 164L77 164L78 160z"/>
<path style="fill:#303030; stroke:none;" d="M79 160L80 161L79 160z"/>
<path style="fill:#5f5f5f; stroke:none;" d="M103 160L102 162L103 160M146 160L148 162L146 160z"/>
<path style="fill:#303030; stroke:none;" d="M52 161L53 162L52 161z"/>
<path style="fill:#9e9e9e; stroke:none;" d="M53 161L54 162L53 161z"/>
<path style="fill:#5f5f5f; stroke:none;" d="M78 161L79 162L78 161z"/>
<path style="fill:#9e9e9e; stroke:none;" d="M103 161L104 162L103 161M146 161L147 162L146 161z"/>
<path style="fill:#5f5f5f; stroke:none;" d="M52 162L51 164L52 162z"/>
<path style="fill:#303030; stroke:none;" d="M78 162L79 163L78 162M101 162L102 163L101 162z"/>
<path style="fill:#9e9e9e; stroke:none;" d="M102 162L101 165L102 162M147 162C149.992 167.427 156.526 166 162 166C174.201 166 188.099 164.167 200 167L200 166C184.458 161.406 160.46 171.718 147 162z"/>
<path style="fill:#303030; stroke:none;" d="M148 162L149 163L148 162z"/>
<path style="fill:#9e9e9e; stroke:none;" d="M52 163L53 164L52 163z"/>
<path style="fill:#5f5f5f; stroke:none;" d="M77 163L78 164L77 163M101 163L102 164L101 163M148 163L149 164L148 163z"/>
<path style="fill:#9e9e9e; stroke:none;" d="M51 164L52 165L51 164z"/>
<path style="fill:#5f5f5f; stroke:none;" d="M76 164L77 165L76 164z"/>
<path style="fill:#303030; stroke:none;" d="M100 164L101 165L100 164M149 164L150 165L149 164z"/>
<path style="fill:#5f5f5f; stroke:none;" d="M50 165L51 166L50 165z"/>
<path style="fill:#9e9e9e; stroke:none;" d="M75 165L76 166L75 165z"/>
<path style="fill:#303030; stroke:none;" d="M76 165L77 166L76 165z"/>
<path style="fill:#5f5f5f; stroke:none;" d="M100 165L101 166L100 165z"/>
<path style="fill:#303030; stroke:none;" d="M199 165L200 166L199 165M49 166L50 167L49 166z"/>
<path style="fill:#9e9e9e; stroke:none;" d="M50 166L51 167L50 166z"/>
<path style="fill:#5f5f5f; stroke:none;" d="M75 166L76 167L75 166z"/>
<path style="fill:#303030; stroke:none;" d="M99 166L97 170L98 170L99 166z"/>
<path style="fill:#9e9e9e; stroke:none;" d="M100 166L101 167L100 166M123 167L123 168L127 168L123 167z"/>
<path style="fill:#303030; stroke:none;" d="M200 166L201 167L200 166z"/>
<path style="fill:#5f5f5f; stroke:none;" d="M49 167L50 168L49 167z"/>
<path style="fill:#9e9e9e; stroke:none;" d="M74 167L72 171L73 171L74 167z"/>
<path style="fill:#303030; stroke:none;" d="M75 167L76 168L75 167z"/>
<path style="fill:#5f5f5f; stroke:none;" d="M99 167L100 168L99 167z"/>
<path style="fill:#303030; stroke:none;" d="M124.667 167.333L125.333 167.667L124.667 167.333z"/>
<path style="fill:#5f5f5f; stroke:none;" d="M200 167L201 168L200 167z"/>
<path style="fill:#303030; stroke:none;" d="M48 168L47 170L48 168z"/>
<path style="fill:#9e9e9e; stroke:none;" d="M49 168L50 169L49 168z"/>
<path style="fill:#303030; stroke:none;" d="M74 168L75 169L74 168z"/>
<path style="fill:#9e9e9e; stroke:none;" d="M99 168L100 169L99 168z"/>
<path style="fill:#5f5f5f; stroke:none;" d="M123 168L124 169L123 168M126 168L127 169L126 168z"/>
<path style="fill:#9e9e9e; stroke:none;" d="M200 168L201 169L200 168z"/>
<path style="fill:#303030; stroke:none;" d="M201 168L203 170L201 168z"/>
<path style="fill:#5f5f5f; stroke:none;" d="M48 169L47 171L48 169z"/>
<path style="fill:#9e9e9e; stroke:none;" d="M98 169L99 170L98 169M122 169L123 170L122 169z"/>
<path style="fill:#303030; stroke:none;" d="M123 169L124 170L123 169M126 169L127 170L126 169z"/>
<path style="fill:#9e9e9e; stroke:none;" d="M127 169L128 170L127 169z"/>
<path style="fill:#5f5f5f; stroke:none;" d="M201 169L203 171L201 169z"/>
<path style="fill:#9e9e9e; stroke:none;" d="M48 170L49 171L48 170z"/>
<path style="fill:#303030; stroke:none;" d="M73 170L74 171L73 170z"/>
<path style="fill:#5f5f5f; stroke:none;" d="M97 170L98 171L97 170M122 170L123 171L122 170M127 170L128 171L127 170z"/>
<path style="fill:#9e9e9e; stroke:none;" d="M201 170L202 171L201 170z"/>
<path style="fill:#303030; stroke:none;" d="M46 171L47 172L46 171z"/>
<path style="fill:#9e9e9e; stroke:none;" d="M47 171L48 172L47 171z"/>
<path style="fill:#5f5f5f; stroke:none;" d="M72 171L73 172L72 171z"/>
<path style="fill:#303030; stroke:none;" d="M96 171L97 172L96 171z"/>
<path style="fill:#9e9e9e; stroke:none;" d="M97 171L98 172L97 171M121 171L120 173L121 171z"/>
<path style="fill:#303030; stroke:none;" d="M122 171L123 172L122 171M127 171L129 173L127 171z"/>
<path style="fill:#9e9e9e; stroke:none;" d="M128 171L129 172L128 171M202 171L203 172L202 171z"/>
<path style="fill:#303030; stroke:none;" d="M203 171L204 172L203 171z"/>
<path style="fill:#5f5f5f; stroke:none;" d="M46 172L47 173L46 172z"/>
<path style="fill:#9e9e9e; stroke:none;" d="M71 172L72 173L71 172z"/>
<path style="fill:#303030; stroke:none;" d="M72 172L73 173L72 172z"/>
<path style="fill:#5f5f5f; stroke:none;" d="M96 172L97 173L96 172z"/>
<path style="fill:#303030; stroke:none;" d="M121 172L122 173L121 172z"/>
<path style="fill:#9e9e9e; stroke:none;" d="M129 172L130 173L129 172z"/>
<path style="fill:#5f5f5f; stroke:none;" d="M203 172L204 173L203 172z"/>
<path style="fill:#303030; stroke:none;" d="M45 173L46 174L45 173z"/>
<path style="fill:#9e9e9e; stroke:none;" d="M46 173L47 174L46 173z"/>
<path style="fill:#5f5f5f; stroke:none;" d="M71 173L72 174L71 173z"/>
<path style="fill:#303030; stroke:none;" d="M95 173L96 174L95 173z"/>
<path style="fill:#9e9e9e; stroke:none;" d="M96 173L97 174L96 173z"/>
<path style="fill:#5f5f5f; stroke:none;" d="M120 173L121 174L120 173M129 173L130 174L129 173z"/>
<path style="fill:#9e9e9e; stroke:none;" d="M203 173L204 174L203 173z"/>
<path style="fill:#303030; stroke:none;" d="M204 173L205 174L204 173z"/>
<path style="fill:#5f5f5f; stroke:none;" d="M45 174L46 175L45 174z"/>
<path style="fill:#9e9e9e; stroke:none;" d="M70 174L71 175L70 174z"/>
<path style="fill:#303030; stroke:none;" d="M71 174L72 175L71 174z"/>
<path style="fill:#9e9e9e; stroke:none;" d="M95 174L96 175L95 174M119 174L120 175L119 174z"/>
<path style="fill:#303030; stroke:none;" d="M120 174L121 175L120 174M129 174L130 175L129 174z"/>
<path style="fill:#9e9e9e; stroke:none;" d="M130 174L131 175L130 174z"/>
<path style="fill:#5f5f5f; stroke:none;" d="M204 174L205 175L204 174z"/>
<path style="fill:#303030; stroke:none;" d="M44 175L43 177L44 175z"/>
<path style="fill:#9e9e9e; stroke:none;" d="M45 175L46 176L45 175z"/>
<path style="fill:#303030; stroke:none;" d="M70 175L71 176L70 175M94 175L93 177L94 175z"/>
<path style="fill:#5f5f5f; stroke:none;" d="M119 175L120 176L119 175M130 175L131 176L130 175z"/>
<path style="fill:#9e9e9e; stroke:none;" d="M204 175L206 177L204 175z"/>
<path style="fill:#303030; stroke:none;" d="M205 175L206 176L205 175z"/>
<path style="fill:#9e9e9e; stroke:none;" d="M44 176L45 177L44 176M69 176L68 178L69 176M94 176L95 177L94 176M118 176L116 180L117 180L118 176z"/>
<path style="fill:#303030; stroke:none;" d="M119 176L120 177L119 176M130 176L131 177L130 176z"/>
<path style="fill:#9e9e9e; stroke:none;" d="M131 176L133 180L134 180L131 176z"/>
<path style="fill:#303030; stroke:none;" d="M206 176L207 177L206 176z"/>
<path style="fill:#5f5f5f; stroke:none;" d="M43 177L44 178L43 177z"/>
<path style="fill:#303030; stroke:none;" d="M69 177L70 178L69 177z"/>
<path style="fill:#5f5f5f; stroke:none;" d="M93 177L94 178L93 177M118 177L119 178L118 177M131 177L132 178L131 177M206 177L207 178L206 177z"/>
<path style="fill:#303030; stroke:none;" d="M42 178L43 179L42 178z"/>
<path style="fill:#9e9e9e; stroke:none;" d="M43 178L44 179L43 178z"/>
<path style="fill:#5f5f5f; stroke:none;" d="M68 178L69 179L68 178z"/>
<path style="fill:#303030; stroke:none;" d="M92 178L93 179L92 178z"/>
<path style="fill:#9e9e9e; stroke:none;" d="M93 178L94 179L93 178M206 178L207 179L206 178z"/>
<path style="fill:#303030; stroke:none;" d="M207 178L208 179L207 178z"/>
<path style="fill:#5f5f5f; stroke:none;" d="M42 179L43 180L42 179z"/>
<path style="fill:#9e9e9e; stroke:none;" d="M67 179L68 180L67 179z"/>
<path style="fill:#303030; stroke:none;" d="M68 179L69 180L68 179z"/>
<path style="fill:#5f5f5f; stroke:none;" d="M92 179L93 180L92 179z"/>
<path style="fill:#303030; stroke:none;" d="M117 179L118 180L117 179M132 179L133 180L132 179z"/>
<path style="fill:#5f5f5f; stroke:none;" d="M207 179L208 180L207 179z"/>
<path style="fill:#303030; stroke:none;" d="M41 180L42 181L41 180z"/>
<path style="fill:#9e9e9e; stroke:none;" d="M42 180L43 181L42 180z"/>
<path style="fill:#5f5f5f; stroke:none;" d="M67 180L68 181L67 180z"/>
<path style="fill:#303030; stroke:none;" d="M91 180L90 182L91 180z"/>
<path style="fill:#9e9e9e; stroke:none;" d="M92 180L93 181L92 180z"/>
<path style="fill:#5f5f5f; stroke:none;" d="M116 180L117 181L116 180M133 180L134 181L133 180z"/>
<path style="fill:#9e9e9e; stroke:none;" d="M207 180L208 183L136 183L136 184L209 184L207 180z"/>
<path style="fill:#303030; stroke:none;" d="M208 180L209 181L208 180z"/>
<path style="fill:#9e9e9e; stroke:none;" d="M41 181C42.2425 186.798 63.8056 185.146 67 181C59.9643 183.981 47.8422 184.805 41 181z"/>
<path style="fill:#303030; stroke:none;" d="M67 181L68 182L67 181z"/>
<path style="fill:#9e9e9e; stroke:none;" d="M91 181L92 182L91 181M115 181L116 182L115 181z"/>
<path style="fill:#303030; stroke:none;" d="M116 181L117 182L116 181M133 181L134 182L133 181z"/>
<path style="fill:#9e9e9e; stroke:none;" d="M134 181L135 182L134 181z"/>
<path style="fill:#303030; stroke:none;" d="M40.3333 182.667L40.6667 183.333L40.3333 182.667M66 182L67 183L66 182z"/>
<path style="fill:#5f5f5f; stroke:none;" d="M90 182L91 183L90 182M115 182L116 183L115 182M134 182L135 183L134 182z"/>
<path style="fill:#303030; stroke:none;" d="M209.333 182.667L209.667 183.333L209.333 182.667z"/>
<path style="fill:#5f5f5f; stroke:none;" d="M65 183L66 184L65 183z"/>
<path style="fill:#303030; stroke:none;" d="M90 183L91 184L90 183z"/>
<path style="fill:#9e9e9e; stroke:none;" d="M91 183L91 184L114 184L91 183z"/>
<path style="fill:#5f5f5f; stroke:none;" d="M114 183L115 184L114 183M135 183L136 184L135 183z"/>
</svg>
